<svg id="Layer_1" data-name="Layer 1" xmlns="http://www.w3.org/2000/svg" viewBox="0 0 1245.38 1044.56"><defs><style>.cls-1,.cls-2{fill:#ffac27;}.cls-2{font-size:69.38px;font-family:Averta-Bold, Averta;font-weight:700;}.cls-3{letter-spacing:-0.05em;}.cls-4{letter-spacing:-0.02em;}.cls-5{fill:none;stroke:#ffac27;stroke-miterlimit:10;stroke-width:3px;}</style></defs><path class="cls-1" d="M371.54,440.6l-247,403.52h82.07L285.56,712H404.12l-.22,132.19h59.54V290.49Zm-51,212.83L404.4,513l-.24,140.48Z"/><polygon class="cls-1" points="1133.15 844.22 978.28 588.16 978.39 726.31 1013.57 773.25 962.08 773.25 962.08 564.74 886.1 440.6 791.57 286.17 791.57 844.22 795.11 844.22 795.11 844.22 852.5 844.22 852.5 515.03 893.54 578.44 893.54 844.22 1133.15 844.22"/><polygon class="cls-1" points="767.39 632.71 689.39 632.71 689.39 777.34 626.08 777.34 562.13 777.34 562.13 261.93 625.68 158.65 689.39 262.4 689.39 427.1 767.39 427.1 767.39 266.85 625.58 31.54 484.13 266.23 484.13 844.24 767.39 844.24 767.39 632.71"/><rect class="cls-1" x="143.22" y="875.17" width="973.23" height="8.32"/><text class="cls-2" transform="translate(216.02 990.15)">OUTDOOR A<tspan class="cls-3" x="424.25" y="0">D</tspan><tspan x="471.77" y="0">VE</tspan><tspan class="cls-4" x="561.41" y="0">R</tspan><tspan x="605.54" y="0">TISING</tspan></text><rect class="cls-5" x="196.79" y="895.42" width="871.88" height="138.15"/></svg>